<mxfile host="app.diagrams.net" modified="2022-11-27T14:04:41.647Z" agent="5.0 (Windows NT 10.0; Win64; x64) AppleWebKit/537.36 (KHTML, like Gecko) Chrome/107.0.0.0 Safari/537.36 Edg/107.0.1418.56" etag="HFZHwN145ZC0L7PFWskO" version="20.6.0" type="github">
  <diagram name="Page-1" id="9361dd3d-8414-5efd-6122-117bd74ce7a7">
    <mxGraphModel dx="642" dy="875" grid="1" gridSize="10" guides="1" tooltips="1" connect="1" arrows="1" fold="1" page="0" pageScale="1.5" pageWidth="826" pageHeight="1169" background="none" math="0" shadow="0">
      <root>
        <mxCell id="0" />
        <mxCell id="1" parent="0" />
        <mxCell id="69" value="8080" style="fillColor=#DEE8FF;strokeColor=none" parent="1" vertex="1">
          <mxGeometry x="50" y="-15" width="1570" height="920" as="geometry" />
        </mxCell>
        <mxCell id="2" value="" style="fillColor=#CC4125;strokeColor=#660000" parent="1" vertex="1">
          <mxGeometry x="200" y="180.17" width="10" height="259.83" as="geometry" />
        </mxCell>
        <mxCell id="4" value="FotaApplication" style="shadow=1;fillColor=#A2C4C9;strokeColor=none" parent="1" vertex="1">
          <mxGeometry x="152.5" y="60" width="105" height="50" as="geometry" />
        </mxCell>
        <mxCell id="6" value="" style="fillColor=#CC4125;strokeColor=#660000" parent="1" vertex="1">
          <mxGeometry x="340" y="180" width="10" height="270" as="geometry" />
        </mxCell>
        <mxCell id="7" value="MainService" style="shadow=1;fillColor=#A2C4C9;strokeColor=none" parent="1" vertex="1">
          <mxGeometry x="295" y="60" width="105" height="50" as="geometry" />
        </mxCell>
        <mxCell id="8" value="" style="edgeStyle=none;endArrow=none;dashed=1" parent="1" source="7" target="6" edge="1">
          <mxGeometry x="272.3350694444445" y="165" width="100" height="100" as="geometry">
            <mxPoint x="347.2588734567901" y="110" as="sourcePoint" />
            <mxPoint x="347.5761959876544" y="165" as="targetPoint" />
          </mxGeometry>
        </mxCell>
        <mxCell id="9" value="startService" style="edgeStyle=none;verticalLabelPosition=top;verticalAlign=bottom;labelBackgroundColor=#DEE8FF;" parent="1" edge="1">
          <mxGeometry width="100" height="100" as="geometry">
            <mxPoint x="210" y="190" as="sourcePoint" />
            <mxPoint x="340" y="190" as="targetPoint" />
            <mxPoint x="5" as="offset" />
          </mxGeometry>
        </mxCell>
        <mxCell id="15" value="GwmInstallerService" style="shadow=1;fillColor=#A2C4C9;strokeColor=none" parent="1" vertex="1">
          <mxGeometry x="462.28" y="60" width="117.72" height="50" as="geometry" />
        </mxCell>
        <mxCell id="17" value="" style="fillColor=#CC4125;strokeColor=#660000" parent="1" vertex="1">
          <mxGeometry x="516.14" y="310" width="10" height="100" as="geometry" />
        </mxCell>
        <mxCell id="21" value="" style="fillColor=#CC4125;strokeColor=#660000" parent="1" vertex="1">
          <mxGeometry x="837.5" y="400" width="10" height="90" as="geometry" />
        </mxCell>
        <mxCell id="22" value="BasicService" style="shadow=1;fillColor=#A2C4C9;strokeColor=none" parent="1" vertex="1">
          <mxGeometry x="790" y="60" width="105" height="50" as="geometry" />
        </mxCell>
        <mxCell id="23" value="" style="edgeStyle=none;endArrow=none;dashed=1" parent="1" source="22" target="21" edge="1">
          <mxGeometry x="614.4878472222224" y="174.99999999999997" width="100" height="100" as="geometry">
            <mxPoint x="674.6527777777778" y="110" as="sourcePoint" />
            <mxPoint x="674.6527777777778" y="260" as="targetPoint" />
          </mxGeometry>
        </mxCell>
        <mxCell id="24" value="EventManager" style="shadow=1;fillColor=#A2C4C9;strokeColor=none" parent="1" vertex="1">
          <mxGeometry x="640" y="60" width="105" height="50" as="geometry" />
        </mxCell>
        <mxCell id="25" value="" style="edgeStyle=none;endArrow=none;dashed=1;startArrow=none;" parent="1" source="wECUdKF-juwCjk04Er0C-90" target="26" edge="1">
          <mxGeometry x="727.3350694444446" y="165" width="100" height="100" as="geometry">
            <mxPoint x="802.2588734567901" y="110" as="sourcePoint" />
            <mxPoint x="802.5761959876544" y="165" as="targetPoint" />
          </mxGeometry>
        </mxCell>
        <mxCell id="26" value="" style="fillColor=#CC4125;strokeColor=#660000" parent="1" vertex="1">
          <mxGeometry x="687.5" y="180.17" width="10" height="349.83" as="geometry" />
        </mxCell>
        <mxCell id="76" value="" style="align=left;fillColor=#BFC8DB" parent="1" vertex="1">
          <mxGeometry x="189.99999999999997" y="699.7222222222223" width="1201.1944444444443" height="60.55555555555554" as="geometry" />
        </mxCell>
        <mxCell id="78" value="Request all changes" style="text;align=left" parent="1" vertex="1">
          <mxGeometry x="268.05555555555554" y="720.1157407407408" width="351.80555555555554" height="26" as="geometry" />
        </mxCell>
        <mxCell id="85" value="" style="edgeStyle=elbowEdgeStyle;elbow=vertical;endArrow=none" parent="1" edge="1">
          <mxGeometry x="49.99999999999999" y="649.4328703703704" width="100" height="100" as="geometry">
            <mxPoint x="190.00000000000003" y="699.4328703703704" as="sourcePoint" />
            <mxPoint x="140" y="699.4328703703704" as="targetPoint" />
          </mxGeometry>
        </mxCell>
        <mxCell id="86" value="" style="edgeStyle=elbowEdgeStyle;elbow=vertical;endArrow=none" parent="1" edge="1">
          <mxGeometry x="49.99999999999993" y="709.9884259259259" width="100" height="100" as="geometry">
            <mxPoint x="189.99999999999994" y="759.9884259259259" as="sourcePoint" />
            <mxPoint x="139.99999999999994" y="759.9884259259259" as="targetPoint" />
          </mxGeometry>
        </mxCell>
        <mxCell id="89" value="{10..50ms}" style="edgeStyle=elbowEdgeStyle;elbow=horizontal;startArrow=open;endArrow=open;labelPosition=left;align=right" parent="1" edge="1">
          <mxGeometry width="100" height="100" as="geometry">
            <mxPoint x="153.94675925925927" y="700.2777777777778" as="sourcePoint" />
            <mxPoint x="153.94675925925927" y="760.2777777777778" as="targetPoint" />
            <mxPoint x="-4.236111111111107" y="-0.2777777777777883" as="offset" />
          </mxGeometry>
        </mxCell>
        <mxCell id="77" value="ref" style="rounded=1;fontStyle=1;fillColor=#FFD966;strokeColor=none" parent="1" vertex="1">
          <mxGeometry x="196.24999999999997" y="707.6157407407409" width="53.75" height="25" as="geometry" />
        </mxCell>
        <mxCell id="wECUdKF-juwCjk04Er0C-113" value="setCarService" style="edgeStyle=none;verticalLabelPosition=top;verticalAlign=bottom;labelBackgroundColor=#DEE8FF;" edge="1" parent="1">
          <mxGeometry x="130" y="30" width="100" height="100" as="geometry">
            <mxPoint x="340" y="220" as="sourcePoint" />
            <mxPoint x="210" y="220.5" as="targetPoint" />
            <mxPoint x="5" as="offset" />
          </mxGeometry>
        </mxCell>
        <mxCell id="wECUdKF-juwCjk04Er0C-117" value="&lt;span style=&quot;text-align: center;&quot;&gt;postCheckMainService&lt;/span&gt;" style="edgeStyle=orthogonalEdgeStyle;html=1;align=left;spacingLeft=2;endArrow=block;rounded=0;entryX=1;entryY=0;labelBackgroundColor=#DEE8FF;fontColor=#000000;" edge="1" parent="1">
          <mxGeometry x="0.0476" relative="1" as="geometry">
            <mxPoint x="352" y="228" as="sourcePoint" />
            <Array as="points">
              <mxPoint x="375" y="228" />
            </Array>
            <mxPoint x="353.25" y="263.39" as="targetPoint" />
            <mxPoint as="offset" />
          </mxGeometry>
        </mxCell>
        <mxCell id="wECUdKF-juwCjk04Er0C-118" value="&lt;span style=&quot;text-align: center;&quot;&gt;postCheckMainService&lt;/span&gt;" style="edgeStyle=orthogonalEdgeStyle;html=1;align=left;spacingLeft=2;endArrow=block;rounded=0;entryX=1;entryY=0;labelBackgroundColor=#DEE8FF;fontColor=#000000;" edge="1" parent="1">
          <mxGeometry x="0.0476" relative="1" as="geometry">
            <mxPoint x="351" y="228" as="sourcePoint" />
            <Array as="points">
              <mxPoint x="374" y="228" />
              <mxPoint x="374" y="263" />
            </Array>
            <mxPoint x="352.25" y="263.39" as="targetPoint" />
            <mxPoint as="offset" />
          </mxGeometry>
        </mxCell>
        <mxCell id="wECUdKF-juwCjk04Er0C-119" value="&lt;div style=&quot;text-align: center;&quot;&gt;&lt;span style=&quot;font-size: 11px;&quot;&gt;bindRas&lt;/span&gt;&lt;/div&gt;" style="edgeStyle=orthogonalEdgeStyle;html=1;align=left;spacingLeft=2;endArrow=block;rounded=0;labelBackgroundColor=#DEE8FF;fontColor=#000000;" edge="1" parent="1">
          <mxGeometry x="0.0476" relative="1" as="geometry">
            <mxPoint x="351.5" y="278.99" as="sourcePoint" />
            <Array as="points">
              <mxPoint x="374" y="279" />
              <mxPoint x="374" y="314" />
            </Array>
            <mxPoint x="353" y="314" as="targetPoint" />
            <mxPoint as="offset" />
          </mxGeometry>
        </mxCell>
        <mxCell id="wECUdKF-juwCjk04Er0C-120" value="startService and bindService" style="edgeStyle=none;verticalLabelPosition=top;verticalAlign=bottom;labelBackgroundColor=#DEE8FF;" edge="1" parent="1">
          <mxGeometry x="140.5" y="151.61" width="100" height="100" as="geometry">
            <mxPoint x="350.5" y="341.61" as="sourcePoint" />
            <mxPoint x="519" y="342" as="targetPoint" />
            <mxPoint x="5" as="offset" />
          </mxGeometry>
        </mxCell>
        <mxCell id="wECUdKF-juwCjk04Er0C-122" value="" style="edgeStyle=none;endArrow=none;dashed=1" edge="1" parent="1">
          <mxGeometry x="130.32506944444452" y="170.09" width="100" height="100" as="geometry">
            <mxPoint x="205.20590909090924" y="115.09" as="sourcePoint" />
            <mxPoint x="204.41045454545474" y="185.09" as="targetPoint" />
          </mxGeometry>
        </mxCell>
        <mxCell id="wECUdKF-juwCjk04Er0C-121" value="isServiceReady" style="edgeStyle=none;verticalLabelPosition=top;verticalAlign=bottom;labelBackgroundColor=#DEE8FF;" edge="1" parent="1">
          <mxGeometry x="140" y="200" width="100" height="100" as="geometry">
            <mxPoint x="350" y="390" as="sourcePoint" />
            <mxPoint x="518.4999999999998" y="390.39" as="targetPoint" />
            <mxPoint x="5" as="offset" />
          </mxGeometry>
        </mxCell>
        <mxCell id="72" value="persistent" style="rounded=1;fontStyle=1;fillColor=#FFD966;strokeColor=none" parent="1" vertex="1">
          <mxGeometry x="170" y="130" width="70" height="30" as="geometry" />
        </mxCell>
        <mxCell id="wECUdKF-juwCjk04Er0C-90" value="注册BD事件" style="fillColor=#BFC8DB;align=right;" vertex="1" parent="1">
          <mxGeometry x="633.64" y="140" width="116.36" height="30" as="geometry" />
        </mxCell>
        <mxCell id="wECUdKF-juwCjk04Er0C-123" value="" style="edgeStyle=none;endArrow=none;dashed=1" edge="1" parent="1" source="24" target="wECUdKF-juwCjk04Er0C-90">
          <mxGeometry x="727.3350694444446" y="165" width="100" height="100" as="geometry">
            <mxPoint x="802.5" y="110" as="sourcePoint" />
            <mxPoint x="802.5" y="289.3942901234568" as="targetPoint" />
          </mxGeometry>
        </mxCell>
        <mxCell id="wECUdKF-juwCjk04Er0C-144" style="edgeStyle=none;rounded=0;orthogonalLoop=1;jettySize=auto;html=1;exitX=0.5;exitY=0;exitDx=0;exitDy=0;labelBackgroundColor=#DEE8FF;fontColor=#000000;" edge="1" parent="1" source="75" target="wECUdKF-juwCjk04Er0C-90">
          <mxGeometry relative="1" as="geometry" />
        </mxCell>
        <mxCell id="75" value="new" style="rounded=1;fontStyle=1;fillColor=#FFD966;strokeColor=none;arcSize=50;" parent="1" vertex="1">
          <mxGeometry x="633.64" y="140" width="33.97" height="20.09" as="geometry" />
        </mxCell>
        <mxCell id="wECUdKF-juwCjk04Er0C-130" value="sendEvent" style="edgeStyle=none;verticalLabelPosition=top;verticalAlign=bottom;labelBackgroundColor=#DEE8FF;entryX=0.201;entryY=0.919;entryDx=0;entryDy=0;entryPerimeter=0;" edge="1" parent="1">
          <mxGeometry x="140" y="241" width="100" height="100" as="geometry">
            <mxPoint x="350" y="431" as="sourcePoint" />
            <mxPoint x="689.51" y="429.29999999999995" as="targetPoint" />
            <mxPoint x="5" as="offset" />
          </mxGeometry>
        </mxCell>
        <mxCell id="wECUdKF-juwCjk04Er0C-131" value="" style="edgeStyle=none;endArrow=none;dashed=1;exitX=0.5;exitY=1;exitDx=0;exitDy=0;" edge="1" parent="1" source="15" target="17">
          <mxGeometry x="450.83506944444457" y="205" width="100" height="100" as="geometry">
            <mxPoint x="525.7282608695652" y="150" as="sourcePoint" />
            <mxPoint x="524.967391304348" y="220" as="targetPoint" />
          </mxGeometry>
        </mxCell>
        <mxCell id="wECUdKF-juwCjk04Er0C-137" value="startService" style="edgeStyle=none;verticalLabelPosition=top;verticalAlign=bottom;labelBackgroundColor=#DEE8FF;" edge="1" parent="1">
          <mxGeometry x="487.5" y="272.08" width="100" height="100" as="geometry">
            <mxPoint x="697.5" y="462.08" as="sourcePoint" />
            <mxPoint x="843" y="462" as="targetPoint" />
            <mxPoint x="5" as="offset" />
          </mxGeometry>
        </mxCell>
        <mxCell id="wECUdKF-juwCjk04Er0C-139" value="BasicService" style="shadow=1;fillColor=#A2C4C9;strokeColor=none" vertex="1" parent="1">
          <mxGeometry x="930" y="60" width="105" height="50" as="geometry" />
        </mxCell>
        <mxCell id="wECUdKF-juwCjk04Er0C-140" value="" style="edgeStyle=none;endArrow=none;dashed=1;entryX=0.75;entryY=0;entryDx=0;entryDy=0;" edge="1" parent="1">
          <mxGeometry x="750.6578472222224" y="174.99999999999997" width="100" height="100" as="geometry">
            <mxPoint x="978.67" y="110" as="sourcePoint" />
            <mxPoint x="982" y="430.00429012345694" as="targetPoint" />
          </mxGeometry>
        </mxCell>
        <mxCell id="wECUdKF-juwCjk04Er0C-141" value="" style="fillColor=#CC4125;strokeColor=#660000" vertex="1" parent="1">
          <mxGeometry x="977.5" y="430" width="10" height="100" as="geometry" />
        </mxCell>
        <mxCell id="wECUdKF-juwCjk04Er0C-143" value="ipcSendEvent" style="edgeStyle=none;verticalLabelPosition=top;verticalAlign=bottom;labelBackgroundColor=#DEE8FF;" edge="1" parent="1">
          <mxGeometry width="100" height="100" as="geometry">
            <mxPoint x="846.5" y="482.0799999999999" as="sourcePoint" />
            <mxPoint x="980" y="480" as="targetPoint" />
            <mxPoint x="-3" y="-1" as="offset" />
          </mxGeometry>
        </mxCell>
        <mxCell id="wECUdKF-juwCjk04Er0C-145" value="recvEvent" style="edgeStyle=elbowEdgeStyle;elbow=vertical;dashed=1;verticalLabelPosition=bottom;verticalAlign=bottom;labelBackgroundColor=#DEE8FF;" edge="1" parent="1">
          <mxGeometry x="624.89" y="469.51793209876536" width="100" height="100" as="geometry">
            <mxPoint x="980" y="520.57" as="sourcePoint" />
            <mxPoint x="697.5" y="520.72" as="targetPoint" />
            <Array as="points" />
          </mxGeometry>
        </mxCell>
      </root>
    </mxGraphModel>
  </diagram>
</mxfile>
